# xmcd
#
# Track frame offsets:
#	150
#	21809
#	36285
#	51466
#	68770
#	87111
#	100944
#	114064
#	127395
#	143804
#	158741
#
# Disc length: 2340 seconds
#
# Revision: 1
# Processed by: cddbd v1.5.1PL2 Copyright (c) Steve Scherf et al.
# Submitted via: audiograbber 1.83.01
#
DISCID=9209220b
DTITLE=Robertaq Lombardi - Mistura Brasileira Ed.Limitada
DYEAR=2005
DGENRE=Musica Brasileira
TTITLE0=Mistura Brasileira
TTITLE1=Insensatez
TTITLE2=Bem Vindo ao Rio de Janeiro
TTITLE3=Vou
TTITLE4=Lagrimas
TTITLE5=Teus olhos
TTITLE6=Gogolô
TTITLE7=Ta na fera
TTITLE8=A mais bonita
TTITLE9=Vai vem
TTITLE10=Asa Branca
EXTD=
EXTT0=
EXTT1=
EXTT2=
EXTT3=
EXTT4=
EXTT5=
EXTT6=
EXTT7=
EXTT8=
EXTT9=
EXTT10=
PLAYORDER=
